<svg id="Layer_1" data-name="Layer 1" xmlns="http://www.w3.org/2000/svg" viewBox="0 0 431.49 431.49"><title>logo</title><path d="M610.8,524.92A215.51,215.51,0,0,1,395.06,740.66c-119.16,0-215.75-96.59-215.75-215.74S275.9,309.17,395.06,309.17,610.8,405.76,610.8,524.92Z" transform="translate(-179.31 -309.17)" fill="#001fff"/><path d="M603.53,580.64A216,216,0,0,1,433.75,737.2L269.87,508.85l211.64-50.23Z" transform="translate(-179.31 -309.17)" fill="#000e54"/><polygon points="302.19 199.68 215.75 324.05 340.93 199.68 302.19 199.68" fill="#42cff8"/><polygon points="252.18 149.66 302.19 199.68 302.19 149.45 215.75 149.45 252.18 199.68 252.18 149.66" fill="#42cff8"/><polygon points="177.84 151.14 177.84 199.68 215.75 149.45 129.29 149.45 129.29 199.68 177.84 151.14" fill="#42cff8"/><polygon points="129.29 149.45 90.56 199.68 129.29 199.68 129.29 149.45" fill="#00bbf4"/><polygon points="340.93 199.68 302.19 149.45 302.19 199.68 340.93 199.68" fill="#00bbf4"/><polygon points="129.29 199.68 140.82 199.68 177.84 199.68 177.84 151.14 129.29 199.68" fill="#83e4fd"/><polygon points="252.18 199.68 302.19 199.68 252.18 149.66 252.18 199.68" fill="#83e4fd"/><polygon points="252.18 199.68 215.75 149.45 177.84 199.68 252.18 199.68" fill="#62dafb"/><polygon points="90.56 199.68 215.75 324.05 129.29 199.68 90.56 199.68" fill="#42cff8"/><polygon points="177.84 199.68 140.82 199.68 129.29 199.68 215.75 324.05 177.84 199.68 177.84 199.68" fill="#00bbf4"/><polygon points="177.84 199.68 215.75 324.05 252.18 199.68 177.84 199.68" fill="#83e4fd"/><polygon points="252.18 199.68 215.75 324.05 302.19 199.68 252.18 199.68" fill="#00bbf4"/></svg>